# xmcd
#
# Track frame offsets: 
#        150
#        20070
#        38124
#        57401
#        77873
#        103351
#        119302
#        137154
#        159076
#        177796
#        197928
#        215921
#        235373
#
# Disc length: 3343 seconds
#
# Revision: 0
# Processed by: cddbd v1.5.2PL0 Copyright (c) Steve Scherf et al.
# Submitted via: ExactAudioCopy v0.95a5
#
DISCID=bf0d0d0d
DTITLE=刘艺 李慧瑜 - 那个季节里的歌IV
DYEAR=2005
DGENRE=Blues
TTITLE0=迟来的爱 刘艺 李慧瑜
TTITLE1=读你 刘艺 李慧瑜
TTITLE2=爱你一万年 刘艺 李慧瑜
TTITLE3=片片枫叶情 刘艺 李慧瑜
TTITLE4=蜗牛 刘艺 李慧瑜
TTITLE5=谈心 刘艺 李慧瑜
TTITLE6=追梦人 刘艺 李慧瑜
TTITLE7=恰似你的温柔 刘艺 李慧瑜
TTITLE8=挥着翅膀的女孩 刘艺 李慧瑜
TTITLE9=羞答答的玫瑰静悄悄地开 刘艺 李慧瑜
TTITLE10=有一天我会 刘艺 李慧瑜
TTITLE11=约定 刘艺 李慧瑜
TTITLE12=难得有情人 刘艺 李慧瑜
EXTD=
EXTT0=
EXTT1=
EXTT2=
EXTT3=
EXTT4=
EXTT5=
EXTT6=
EXTT7=
EXTT8=
EXTT9=
EXTT10=
EXTT11=
EXTT12=
PLAYORDER=
